<svg id="Logos" xmlns="http://www.w3.org/2000/svg" viewBox="0 0 944.89 435.62"><defs><style>.cls-1{fill:#fff;}</style></defs><path class="cls-1" d="M440.28,113.71h16.55l24.78,70H465.74l-4.62-14.39H435.34l-4.75,14.39h-15.3Zm-1,43.56h17.94l-8.85-27.55Z"/><path class="cls-1" d="M537,113.71h21v70H544.38V136.37c0-1.36,0-3.27,0-5.73s.05-4.34.05-5.67L531.2,183.72H517L503.81,125c0,1.33,0,3.22.05,5.67s.05,4.37.05,5.73v47.35H490.27v-70h21.29l12.75,55.05Z"/><path class="cls-1" d="M623.76,121.17A17.74,17.74,0,0,1,627,131.85q0,6.42-3.25,10.31a16.52,16.52,0,0,1-5.33,4,15.56,15.56,0,0,1,8.08,6.18,18.52,18.52,0,0,1,2.73,10.26,20.47,20.47,0,0,1-3.12,11.16,19.21,19.21,0,0,1-12.86,9,48.08,48.08,0,0,1-9.9.95H571.78v-70h33.84Q618.42,113.91,623.76,121.17Zm-38,4.7v15.44h17a14,14,0,0,0,7.4-1.74q2.83-1.73,2.84-6.15,0-4.89-3.76-6.46a26.3,26.3,0,0,0-8.27-1.09Zm0,27v18.66h17a16.59,16.59,0,0,0,7.09-1.23q4.59-2.28,4.6-8.74,0-5.46-4.46-7.51a17.72,17.72,0,0,0-7-1.18Z"/><path class="cls-1" d="M655.15,183.72H640.61v-70h14.54Z"/><path class="cls-1" d="M720.6,126.11H683.55V141h34v12.16h-34v18h38.76v12.58H669.25v-70H720.6Z"/><path class="cls-1" d="M733.47,113.71h15.34l27.79,48.82V113.71h13.64v70H775.61l-28.5-49.67v49.67H733.47Z"/><path class="cls-1" d="M854.83,113.71v12.4H833.89v57.61H819.16V126.11h-21v-12.4Z"/><path class="cls-1" d="M430.8,251.91q.69,4.8,2.67,7.17,3.63,4.34,12.46,4.33a26.84,26.84,0,0,0,8.59-1.14q6.25-2.19,6.26-8.13a6,6,0,0,0-3.07-5.36c-2-1.24-5.29-2.33-9.72-3.28l-7.57-1.66q-11.19-2.47-15.36-5.37Q418,233.63,418,223.32a20.09,20.09,0,0,1,6.93-15.63q6.91-6.23,20.33-6.22,11.2,0,19.12,5.86t8.29,17H458.59q-.39-6.31-5.65-9a19.24,19.24,0,0,0-8.72-1.76q-5.79,0-9.24,2.28a7.2,7.2,0,0,0-3.46,6.36,6,6,0,0,0,3.41,5.61q2.19,1.23,9.3,2.9l12.29,2.89q8.07,1.91,12.1,5.09,6.25,4.94,6.26,14.29A20.1,20.1,0,0,1,467.47,269q-7.43,6.35-21,6.34-13.83,0-21.75-6.25t-7.92-17.17Z"/><path class="cls-1" d="M525.09,203.51h16.58l-23.42,43.76v26.25H503.62V247.27L479.4,203.51h17.24L511.17,234Z"/><path class="cls-1" d="M560.57,251.91q.69,4.8,2.67,7.17,3.63,4.34,12.46,4.33a26.84,26.84,0,0,0,8.59-1.14q6.26-2.19,6.26-8.13a6,6,0,0,0-3.07-5.36c-2-1.24-5.29-2.33-9.72-3.28l-7.58-1.66q-11.17-2.47-15.35-5.37-7.08-4.84-7.08-15.15a20.09,20.09,0,0,1,6.93-15.63q6.92-6.23,20.33-6.22,11.21,0,19.11,5.86t8.3,17H588.36q-.39-6.31-5.65-9a19.24,19.24,0,0,0-8.72-1.76q-5.79,0-9.24,2.28a7.2,7.2,0,0,0-3.46,6.36,6,6,0,0,0,3.41,5.61q2.19,1.23,9.3,2.9l12.29,2.89q8.07,1.91,12.1,5.09,6.25,4.94,6.26,14.29A20.1,20.1,0,0,1,597.24,269q-7.43,6.35-21,6.34-13.83,0-21.75-6.25t-7.92-17.17Z"/><path class="cls-1" d="M665.79,203.51v12.4H644.84v57.61H630.11V215.91h-21v-12.4Z"/><path class="cls-1" d="M726.11,215.91H689.06v14.87h34v12.16h-34v18h38.76v12.58H674.76v-70h51.35Z"/><path class="cls-1" d="M785.67,203.51h21.05v70H793.09V226.17c0-1.36,0-3.27,0-5.73s0-4.34,0-5.67l-13.27,58.75H765.69l-13.17-58.75c0,1.33,0,3.22.05,5.67s0,4.37,0,5.73v47.35H739v-70h21.29L773,258.56Z"/><path class="cls-1" d="M830.8,251.91a14.2,14.2,0,0,0,2.67,7.17q3.63,4.34,12.46,4.33a26.88,26.88,0,0,0,8.59-1.14q6.26-2.19,6.25-8.13a6,6,0,0,0-3.06-5.36c-2-1.24-5.29-2.33-9.72-3.28l-7.58-1.66q-11.19-2.47-15.36-5.37Q818,233.63,818,223.32a20.12,20.12,0,0,1,6.93-15.63q6.93-6.23,20.34-6.22,11.21,0,19.11,5.86t8.3,17H858.59q-.39-6.31-5.66-9a19.2,19.2,0,0,0-8.71-1.76q-5.79,0-9.25,2.28a7.22,7.22,0,0,0-3.46,6.36,6,6,0,0,0,3.41,5.61q2.19,1.23,9.31,2.9l12.28,2.89q8.09,1.91,12.11,5.09,6.25,4.94,6.26,14.29A20.08,20.08,0,0,1,867.46,269q-7.43,6.35-21,6.34-13.85,0-21.75-6.25t-7.93-17.17Z"/><path class="cls-1" d="M438.43,297a10.12,10.12,0,0,1,3.28,6.47H438a7.14,7.14,0,0,0-7.76-6,8.37,8.37,0,0,0-6.67,2.95q-2.53,3-2.54,9.06a13.36,13.36,0,0,0,2.3,8.12,7.93,7.93,0,0,0,6.83,3.11,7.18,7.18,0,0,0,6.38-3.28,12.58,12.58,0,0,0,1.73-4.53H442a12.88,12.88,0,0,1-3.3,7.54,11.63,11.63,0,0,1-9,3.66,11.8,11.8,0,0,1-8.23-3q-4.4-4-4.39-12.26a15.81,15.81,0,0,1,3.29-10.33,12,12,0,0,1,9.82-4.38C433.7,294.13,436.47,295.07,438.43,297Z"/><path class="cls-1" d="M446.59,294.9h3.48v28.45h-3.48Z"/><path class="cls-1" d="M455.3,294.9h3.55v4H455.3Zm0,7.81h3.55v20.64H455.3Z"/><path class="cls-1" d="M464.12,302.61h3.44v2.94a11.52,11.52,0,0,1,2.25-2.22,6.74,6.74,0,0,1,3.91-1.19,6.19,6.19,0,0,1,4,1.22,6.31,6.31,0,0,1,1.55,2.06,7.24,7.24,0,0,1,6.26-3.28c2.79,0,4.68,1,5.69,3a9.88,9.88,0,0,1,.81,4.37v13.81H488.4V308.94a3.37,3.37,0,0,0-1-2.85,4.15,4.15,0,0,0-2.53-.77,5,5,0,0,0-3.54,1.38c-1,.91-1.48,2.44-1.48,4.59v12.06h-3.54V309.81a7,7,0,0,0-.51-3.08,3.08,3.08,0,0,0-3-1.45,5.11,5.11,0,0,0-3.59,1.53q-1.62,1.53-1.62,5.54v11h-3.48Z"/><path class="cls-1" d="M508.27,310.8a1.88,1.88,0,0,0,1.61-1,3,3,0,0,0,.23-1.34,2.84,2.84,0,0,0-1.26-2.59,6.76,6.76,0,0,0-3.63-.81,4.57,4.57,0,0,0-3.86,1.48,4.81,4.81,0,0,0-.83,2.43h-3.26c.07-2.56.9-4.35,2.49-5.35a10.19,10.19,0,0,1,5.54-1.5,11.26,11.26,0,0,1,5.94,1.39,4.73,4.73,0,0,1,2.26,4.34v12a1.52,1.52,0,0,0,.23.87c.14.22.46.33.94.33l.52,0,.62-.09v2.58a11,11,0,0,1-1.24.29,8.7,8.7,0,0,1-1.16.06,2.88,2.88,0,0,1-2.62-1.28,5.05,5.05,0,0,1-.6-1.92,8.81,8.81,0,0,1-3.06,2.42,9.39,9.39,0,0,1-4.4,1A6.52,6.52,0,0,1,498,322.3a5.82,5.82,0,0,1-1.83-4.38,5.65,5.65,0,0,1,1.8-4.47,8.61,8.61,0,0,1,4.73-2Zm-7.34,9.42a4.11,4.11,0,0,0,2.62.87,8,8,0,0,0,3.56-.85,4.81,4.81,0,0,0,2.91-4.63v-2.8a6.07,6.07,0,0,1-1.65.68,14.28,14.28,0,0,1-2,.39l-2.1.27a8.13,8.13,0,0,0-2.85.79,3.08,3.08,0,0,0-1.62,2.9A2.89,2.89,0,0,0,500.93,320.22Z"/><path class="cls-1" d="M519.91,296.82h3.53v5.79h3.31v2.85h-3.31V319a1.46,1.46,0,0,0,.74,1.46,3.14,3.14,0,0,0,1.35.21h.54a6.55,6.55,0,0,0,.68-.07v2.77a7.09,7.09,0,0,1-1.25.25,10.26,10.26,0,0,1-1.4.08c-1.63,0-2.73-.42-3.31-1.25a5.54,5.54,0,0,1-.88-3.24V305.46h-2.8v-2.85h2.8Z"/><path class="cls-1" d="M543.05,303.18a7.94,7.94,0,0,1,3.14,2.68,9.36,9.36,0,0,1,1.38,3.66,23.7,23.7,0,0,1,.31,4.57H532.79a9,9,0,0,0,1.48,5.08,5,5,0,0,0,4.29,1.92,5.51,5.51,0,0,0,4.32-1.81,6,6,0,0,0,1.28-2.44h3.43a7.19,7.19,0,0,1-.9,2.55,9.18,9.18,0,0,1-1.71,2.3,8,8,0,0,1-3.9,2.09,12,12,0,0,1-2.82.31,8.65,8.65,0,0,1-6.53-2.82q-2.67-2.82-2.67-7.89a12,12,0,0,1,2.69-8.12,8.88,8.88,0,0,1,7-3.12A9.35,9.35,0,0,1,543.05,303.18Zm1.25,8.14a9.14,9.14,0,0,0-1-3.62,5,5,0,0,0-4.74-2.52,5.24,5.24,0,0,0-4,1.74,6.61,6.61,0,0,0-1.71,4.4Z"/><path class="cls-1" d="M569.88,294.9h4.36l10.33,28.45h-4.23l-2.88-8.52H566.2l-3.08,8.52h-4Zm6.34,16.79-4.32-12.57-4.59,12.57Z"/><path class="cls-1" d="M588.3,296.82h3.53v5.79h3.31v2.85h-3.31V319a1.47,1.47,0,0,0,.73,1.46,3.23,3.23,0,0,0,1.36.21h.54a6.55,6.55,0,0,0,.68-.07v2.77a7.28,7.28,0,0,1-1.25.25,10.26,10.26,0,0,1-1.4.08c-1.63,0-2.73-.42-3.32-1.25a5.54,5.54,0,0,1-.87-3.24V305.46h-2.81v-2.85h2.81Z"/><path class="cls-1" d="M607.22,294.9h4.49l8.18,13.67,8.18-13.67h4.53l-10.77,17v11.46H618V311.89Z"/><path class="cls-1" d="M646.79,304.68q2.76,2.67,2.76,7.85a13.52,13.52,0,0,1-2.43,8.29q-2.42,3.27-7.52,3.27a8.5,8.5,0,0,1-6.75-2.89,11.46,11.46,0,0,1-2.5-7.77A12.42,12.42,0,0,1,633,305.1a8.8,8.8,0,0,1,7.07-3.09A9.28,9.28,0,0,1,646.79,304.68Zm-2.16,13.78a13.12,13.12,0,0,0,1.27-5.83,10.38,10.38,0,0,0-.92-4.72,5.15,5.15,0,0,0-5-2.86,4.93,4.93,0,0,0-4.6,2.44,11.34,11.34,0,0,0-1.44,5.88,9.88,9.88,0,0,0,1.44,5.51,5.05,5.05,0,0,0,4.56,2.21A4.75,4.75,0,0,0,644.63,318.46Z"/><path class="cls-1" d="M657.31,302.61v13.77a6,6,0,0,0,.49,2.59,3.41,3.41,0,0,0,3.38,1.86,4.78,4.78,0,0,0,4.83-3.25,13.33,13.33,0,0,0,.7-4.78V302.61h3.48v20.74H666.9l0-3.06a7,7,0,0,1-6.41,3.62c-2.9,0-4.88-1-5.93-3a9,9,0,0,1-.85-4.24v-14.1Z"/><path class="cls-1" d="M676,302.61h3.31v3.58a8.14,8.14,0,0,1,2-2.55,5.18,5.18,0,0,1,3.66-1.5l.33,0,.79.08v3.68c-.2,0-.39-.06-.57-.08l-.57,0a5,5,0,0,0-4,1.7,5.92,5.92,0,0,0-1.41,3.9v11.93H676Z"/><path class="cls-1" d="M703.1,314.17a7.94,7.94,0,0,0,1.1,3.93q1.84,2.83,6.51,2.83a11.28,11.28,0,0,0,3.81-.62q3.32-1.2,3.32-4.3a3.76,3.76,0,0,0-1.41-3.31A13.87,13.87,0,0,0,712,311l-3.73-.87a16.54,16.54,0,0,1-5.18-1.88,6,6,0,0,1-2.62-5.32,8.32,8.32,0,0,1,2.58-6.3q2.58-2.46,7.31-2.46a12.47,12.47,0,0,1,7.4,2.16q3,2.16,3,6.91h-3.62a7.35,7.35,0,0,0-1.19-3.51c-1.13-1.48-3-2.23-5.74-2.23q-3.27,0-4.69,1.44a4.53,4.53,0,0,0-1.43,3.33,3.29,3.29,0,0,0,1.68,3.06,24.46,24.46,0,0,0,5,1.55l3.86.91a11.72,11.72,0,0,1,4.32,1.8,6.83,6.83,0,0,1,2.62,5.79c0,3.15-1.11,5.41-3.35,6.76a14.67,14.67,0,0,1-7.79,2q-5.18,0-8.1-2.71a9.22,9.22,0,0,1-2.87-7.3Z"/><path class="cls-1" d="M739.39,303.18a7.91,7.91,0,0,1,3.13,2.68,9.22,9.22,0,0,1,1.39,3.66,24.55,24.55,0,0,1,.31,4.57H729.13a8.94,8.94,0,0,0,1.48,5.08,4.92,4.92,0,0,0,4.28,1.92,5.54,5.54,0,0,0,4.33-1.81,6.15,6.15,0,0,0,1.28-2.44h3.43a7.19,7.19,0,0,1-.9,2.55,9.43,9.43,0,0,1-1.71,2.3,8,8,0,0,1-3.9,2.09,12.2,12.2,0,0,1-2.83.31,8.63,8.63,0,0,1-6.52-2.82q-2.69-2.82-2.68-7.89a12,12,0,0,1,2.7-8.12,8.84,8.84,0,0,1,7-3.12A9.43,9.43,0,0,1,739.39,303.18Zm1.24,8.14a9,9,0,0,0-1-3.62,5,5,0,0,0-4.74-2.52,5.21,5.21,0,0,0-4,1.74,6.51,6.51,0,0,0-1.71,4.4Z"/><path class="cls-1" d="M748.73,302.61H752v3.58a8,8,0,0,1,2-2.55,5.14,5.14,0,0,1,3.66-1.5l.33,0,.79.08v3.68c-.21,0-.4-.06-.57-.08l-.57,0a5,5,0,0,0-4,1.7,5.92,5.92,0,0,0-1.41,3.9v11.93h-3.49Z"/><path class="cls-1" d="M763.56,302.61l5.53,16.89,5.78-16.89h3.81l-7.81,20.74h-3.71l-7.65-20.74Z"/><path class="cls-1" d="M781.67,294.9h3.55v4h-3.55Zm0,7.81h3.55v20.64h-3.55Z"/><path class="cls-1" d="M804.19,303.71c1.46,1.14,2.35,3.09,2.64,5.87h-3.39A6.12,6.12,0,0,0,802,306.4a4.46,4.46,0,0,0-3.54-1.27,4.9,4.9,0,0,0-4.77,3.25,12.87,12.87,0,0,0-.93,5.2,9.75,9.75,0,0,0,1.32,5.24,5.11,5.11,0,0,0,7.58.81,7.2,7.2,0,0,0,1.75-3.62h3.39q-.57,4.13-2.9,6A9,9,0,0,1,798,324a8,8,0,0,1-6.49-3,11.4,11.4,0,0,1-2.42-7.43q0-5.46,2.66-8.5a8.56,8.56,0,0,1,6.76-3A9.09,9.09,0,0,1,804.19,303.71Z"/><path class="cls-1" d="M823.13,303.18a7.94,7.94,0,0,1,3.14,2.68,9.53,9.53,0,0,1,1.39,3.66,24.76,24.76,0,0,1,.3,4.57H812.88a8.87,8.87,0,0,0,1.48,5.08,4.92,4.92,0,0,0,4.28,1.92,5.54,5.54,0,0,0,4.33-1.81,6.28,6.28,0,0,0,1.28-2.44h3.42a7.19,7.19,0,0,1-.9,2.55,9.41,9.41,0,0,1-1.7,2.3,8.12,8.12,0,0,1-3.91,2.09,12,12,0,0,1-2.82.31,8.67,8.67,0,0,1-6.53-2.82q-2.67-2.82-2.67-7.89a12,12,0,0,1,2.69-8.12,8.88,8.88,0,0,1,7-3.12A9.35,9.35,0,0,1,823.13,303.18Zm1.25,8.14a9.14,9.14,0,0,0-1-3.62,5,5,0,0,0-4.74-2.52,5.24,5.24,0,0,0-4,1.74,6.61,6.61,0,0,0-1.71,4.4Z"/><path class="cls-1" d="M142,70c-32.42,0-68.85,23.88-71.85,72.29-.21,3.38,0,223.31,0,223.31h72V141c.24-26.85,19.76-48.88,48-52.42.77-.1,2-.16,2.7-.18C179.81,75,162.11,70,142,70Z"/><path class="cls-1" d="M196.85,92.63a49.85,49.85,0,0,0-33.37,11.71c-9.46,8-17.14,19.21-17.32,38.1-.16,16.26-.1,31-.1,31,2.69,4.14,60.19,96.32,60.19,96.32l49.22-1.87L279,223.72Z"/><polygon class="cls-1" points="220.85 292.31 209.18 273.46 231.34 272.77 253.5 272.09 243.01 291.62 232.53 311.16 220.85 292.31"/><polygon class="cls-1" points="272.71 290.49 261.03 271.64 283.19 270.96 305.36 270.27 294.87 289.81 284.38 309.34 272.71 290.49"/><polygon class="cls-1" points="286.43 356.65 264.27 357.49 274.63 337.88 284.97 318.27 296.78 337.04 308.59 355.81 286.43 356.65"/><polygon class="cls-1" points="344 364.28 321.85 365.12 332.2 345.51 342.55 325.9 354.35 344.67 366.16 363.44 344 364.28"/><polygon class="cls-1" points="323.07 334.2 312.74 353.82 300.91 335.07 289.08 316.31 311.24 315.45 333.4 314.58 323.07 334.2"/><polygon class="cls-1" points="322.69 333.93 312.36 353.55 300.53 334.8 288.7 316.04 310.86 315.18 333.01 314.31 322.69 333.93"/><polygon class="cls-1" points="293.68 247.04 305.36 265.89 283.19 266.58 261.03 267.27 271.52 247.73 282.01 228.19 293.68 247.04"/><polygon class="cls-1" points="269.08 293.25 280.76 312.1 258.6 312.78 236.44 313.47 246.92 293.93 257.41 274.4 269.08 293.25"/><polygon class="cls-1" points="248.4 336.58 236.72 317.73 258.88 317.04 281.05 316.36 270.56 335.89 260.07 355.43 248.4 336.58"/><polygon class="cls-1" points="321.23 291.31 332.9 310.16 310.74 310.85 288.58 311.54 299.07 292 309.55 272.46 321.23 291.31"/></svg>