<svg id="Logos" xmlns="http://www.w3.org/2000/svg" viewBox="0 0 600 600"><defs><style>.cls-1{fill:#fff;}</style></defs><path class="cls-1" d="M119.15,384.66h15.41l23.07,65.2H142.86l-4.31-13.4h-24l-4.43,13.4H95.87Zm-.9,40.56H135l-8.24-25.65Z"/><path class="cls-1" d="M209.18,384.66h19.6v65.2H216.09v-44.1c0-1.27,0-3.05,0-5.33s.05-4.05.05-5.29l-12.36,54.72H190.58l-12.27-54.72c0,1.24,0,3,.05,5.29s0,4.06,0,5.33v44.1H165.7v-65.2h19.83l11.87,51.27Z"/><path class="cls-1" d="M290,391.6a16.55,16.55,0,0,1,3,10q0,6-3,9.59a15.46,15.46,0,0,1-5,3.72,14.52,14.52,0,0,1,7.53,5.75,17.22,17.22,0,0,1,2.54,9.56,19,19,0,0,1-2.9,10.39,18,18,0,0,1-12,8.41,45.24,45.24,0,0,1-9.22.88H241.61v-65.2h31.51Q285,384.84,290,391.6ZM254.62,396v14.38h15.85a13.06,13.06,0,0,0,6.89-1.62c1.76-1.07,2.65-3,2.65-5.72q0-4.56-3.5-6a24.56,24.56,0,0,0-7.71-1Zm0,25.17v17.39h15.83a15.45,15.45,0,0,0,6.6-1.15q4.29-2.13,4.29-8.14c0-3.39-1.39-5.72-4.15-7a16.51,16.51,0,0,0-6.52-1.11Z"/><path class="cls-1" d="M319.25,449.86H305.71v-65.2h13.54Z"/><path class="cls-1" d="M380.2,396.2H345.7v13.85h31.67v11.32H345.7v16.77h36.1v11.72H332.38v-65.2H380.2Z"/><path class="cls-1" d="M392.19,384.66h14.28l25.89,45.46V384.66h12.69v65.2H431.43L404.89,403.6v46.26h-12.7Z"/><path class="cls-1" d="M505.21,384.66V396.2h-19.5v53.66H472V396.2H452.4V384.66Z"/><path class="cls-1" d="M100.26,513.36a13.23,13.23,0,0,0,2.49,6.68q3.39,4,11.6,4a25,25,0,0,0,8-1.06q5.84-2,5.83-7.57a5.57,5.57,0,0,0-2.86-5,31.1,31.1,0,0,0-9-3.05l-7-1.55q-10.43-2.29-14.31-5-6.59-4.52-6.59-14.12a18.73,18.73,0,0,1,6.45-14.55q6.45-5.79,18.94-5.79,10.42,0,17.8,5.46t7.73,15.86h-13.1a9.34,9.34,0,0,0-5.26-8.36,18,18,0,0,0-8.12-1.64,15.48,15.48,0,0,0-8.61,2.12,6.72,6.72,0,0,0-3.22,5.93,5.59,5.59,0,0,0,3.18,5.22q2,1.15,8.66,2.7l11.44,2.7q7.52,1.77,11.27,4.73,5.84,4.61,5.84,13.32a18.71,18.71,0,0,1-6.91,14.84q-6.91,5.9-19.52,5.9-12.89,0-20.25-5.81t-7.38-16Z"/><path class="cls-1" d="M188.07,468.29h15.44L181.7,509v24.45H168.08V509l-22.56-40.75h16.06l13.53,28.4Z"/><path class="cls-1" d="M221.12,513.36A13.23,13.23,0,0,0,223.6,520q3.39,4,11.61,4a25,25,0,0,0,8-1.06q5.82-2,5.82-7.57a5.58,5.58,0,0,0-2.85-5,31.29,31.29,0,0,0-9.06-3.05l-7.05-1.55q-10.42-2.29-14.31-5-6.58-4.52-6.59-14.12a18.73,18.73,0,0,1,6.45-14.55q6.45-5.79,18.94-5.79,10.44,0,17.8,5.46t7.73,15.86H247a9.32,9.32,0,0,0-5.26-8.36,18,18,0,0,0-8.12-1.64,15.5,15.5,0,0,0-8.61,2.12,6.74,6.74,0,0,0-3.22,5.93A5.59,5.59,0,0,0,225,491q2,1.15,8.66,2.7l11.44,2.7q7.53,1.77,11.28,4.73,5.82,4.61,5.83,13.32a18.71,18.71,0,0,1-6.91,14.84q-6.91,5.9-19.52,5.9-12.88,0-20.25-5.81t-7.38-16Z"/><path class="cls-1" d="M319.1,468.29v11.54H299.59v53.66H285.88V479.83h-19.6V468.29Z"/><path class="cls-1" d="M375.28,479.83H340.77v13.85h31.68V505H340.77v16.77h36.1v11.72H327.46v-65.2h47.82Z"/><path class="cls-1" d="M430.74,468.29h19.61v65.2h-12.7v-44.1c0-1.27,0-3.05.05-5.33s0-4.05,0-5.29l-12.36,54.72H412.14l-12.27-54.72c0,1.24,0,3,.05,5.29s0,4.06,0,5.33v44.1H387.27v-65.2h19.82L419,519.56Z"/><path class="cls-1" d="M472.77,513.36a13.23,13.23,0,0,0,2.49,6.68c2.25,2.69,6.13,4,11.6,4a25,25,0,0,0,8-1.06q5.83-2,5.83-7.57a5.57,5.57,0,0,0-2.86-5,31.1,31.1,0,0,0-9.05-3.05l-7.06-1.55q-10.41-2.29-14.3-5-6.59-4.52-6.59-14.12a18.73,18.73,0,0,1,6.45-14.55q6.45-5.79,18.94-5.79,10.42,0,17.8,5.46t7.73,15.86h-13.1a9.34,9.34,0,0,0-5.26-8.36,18,18,0,0,0-8.12-1.64,15.45,15.45,0,0,0-8.61,2.12,6.72,6.72,0,0,0-3.22,5.93,5.59,5.59,0,0,0,3.18,5.22q2,1.15,8.66,2.7l11.44,2.7q7.51,1.77,11.27,4.73,5.84,4.61,5.83,13.32a18.73,18.73,0,0,1-6.9,14.84q-6.92,5.9-19.52,5.9-12.88,0-20.25-5.81t-7.38-16Z"/><path class="cls-1" d="M229.64,67.08c-30.19,0-64.12,22.24-66.91,67.32-.19,3.15,0,208,0,208h67.1V133.16c.22-25,18.4-45.53,44.72-48.83.72-.09,1.85-.14,2.52-.16C264.9,71.74,248.41,67.08,229.64,67.08Z"/><path class="cls-1" d="M280.77,88.14a46.42,46.42,0,0,0-31.08,10.91c-8.81,7.49-16,17.89-16.13,35.48-.15,15.14-.1,28.88-.1,28.88,2.51,3.85,56.06,89.7,56.06,89.7l45.84-1.74,21.9-41.14Z"/><polygon class="cls-1" points="303.12 274.1 292.24 256.55 312.88 255.91 333.52 255.27 323.75 273.46 313.99 291.65 303.12 274.1"/><polygon class="cls-1" points="351.41 272.41 340.54 254.85 361.18 254.22 381.81 253.58 372.05 271.77 362.28 289.96 351.41 272.41"/><polygon class="cls-1" points="364.19 334.02 343.56 334.8 353.19 316.54 362.83 298.28 373.83 315.76 384.82 333.24 364.19 334.02"/><polygon class="cls-1" points="417.81 341.12 397.17 341.91 406.81 323.64 416.45 305.38 427.44 322.86 438.44 340.34 417.81 341.12"/><polygon class="cls-1" points="398.31 313.12 388.69 331.39 377.68 313.92 366.66 296.46 387.29 295.65 407.93 294.84 398.31 313.12"/><polygon class="cls-1" points="397.95 312.86 388.33 331.13 377.32 313.67 366.3 296.2 386.94 295.4 407.57 294.59 397.95 312.86"/><polygon class="cls-1" points="370.94 231.94 381.81 249.5 361.18 250.14 340.54 250.78 350.3 232.59 360.07 214.39 370.94 231.94"/><polygon class="cls-1" points="348.04 274.97 358.91 292.53 338.27 293.17 317.63 293.81 327.4 275.61 337.16 257.42 348.04 274.97"/><polygon class="cls-1" points="328.77 315.33 317.9 297.77 338.54 297.13 359.18 296.5 349.41 314.69 339.64 332.88 328.77 315.33"/><polygon class="cls-1" points="396.6 273.17 407.47 290.73 386.83 291.37 366.19 292.01 375.96 273.81 385.72 255.62 396.6 273.17"/></svg>